# xmcd CD database file
#
# Track frame offsets:
#	150
#	18678
#	28477
#	42849
#	65244
#	77174
#	114365
#	138592
#	168804
#	234367
#	249026
#	267503
#
# Disc length: 3786 seconds
#
# Revision: 0
# Processed by: cddbd v1.5.2PL0 Copyright (c) Steve Scherf et al.
# Submitted via: CDex 1.70beta2
#
DISCID=a20ec80c
DTITLE=Rüdiger Grünwald - Sanfte Klaenge zum Yoga
DYEAR=2008
DGENRE=New Age
TTITLE0=Einstimmung
TTITLE1=Einkehr halten
TTITLE2=Hallo Labensgeister
TTITLE3=Raekeln wie eine Katze
TTITLE4=Die Sonne gruessen
TTITLE5=Wurzeln wie ein Baum
TTITLE6=Kraft und Hingabe
TTITLE7=Ins Gleichgewicht gleiten
TTITLE8=In die Mitte finden
TTITLE9=Sich der Welt oeffnen
TTITLE10=Sammeln und Zentrieren
TTITLE11=Ausklang
EXTD=YEAR: 2008
EXTT0=
EXTT1=
EXTT2=
EXTT3=
EXTT4=
EXTT5=
EXTT6=
EXTT7=
EXTT8=
EXTT9=
EXTT10=
EXTT11=
PLAYORDER=
